<?xml version="1.0" encoding="iso-8859-1"?>
<!-- Uploaded to: SVG Repo, www.svgrepo.com, Generator: SVG Repo Mixer Tools -->
<svg height="800px" width="800px" version="1.1" id="Layer_1" xmlns="http://www.w3.org/2000/svg" xmlns:xlink="http://www.w3.org/1999/xlink" 
	 viewBox="0 0 512 512" xml:space="preserve">
<path style="fill:#ECEDEF;" d="M106.324,8.017c-9.446,0-17.102,7.656-17.102,17.102v461.762c0,9.446,7.656,17.102,17.102,17.102
	h376.251c9.446,0,17.102-7.656,17.102-17.102V84.977l-76.96-76.96H106.324z"/>
<path style="fill:#D9DCDF;" d="M439.818,84.977h59.858l-76.96-76.96v59.858C422.715,77.319,430.373,84.977,439.818,84.977z"/>
<path style="fill:#C6CACF;" d="M397.063,196.142H89.222V42.221h307.841c4.722,0,8.551,3.829,8.551,8.551v136.818
	C405.614,192.313,401.785,196.142,397.063,196.142z"/>
<polygon style="fill:#C4DF64;" points="388.512,179.04 12.261,179.04 80.67,110.63 12.261,42.221 388.512,42.221 "/>
<path style="fill:#C6CACF;" d="M414.165,461.228H174.733c-4.722,0-8.551-3.829-8.551-8.551v-222.33c0-4.722,3.829-8.551,8.551-8.551
	h239.432c4.722,0,8.551,3.829,8.551,8.551v222.33C422.716,457.399,418.888,461.228,414.165,461.228z"/>
<path style="fill:#B3B9BF;" d="M183.284,444.125v-222.33h-8.551c-4.722,0-8.551,3.829-8.551,8.551v222.33
	c0,4.722,3.829,8.551,8.551,8.551h239.432c4.722,0,8.551-3.829,8.551-8.551v-8.551H183.284z"/>
<path d="M499.677,426.489c4.428,0,8.017-3.589,8.017-8.017V84.977c0-2.1-0.862-4.183-2.347-5.668l-76.96-76.96
	C426.899,0.863,424.818,0,422.716,0H106.324C92.473,0,81.205,11.268,81.205,25.119v9.086H12.261c-6.987,0-10.615,8.738-5.669,13.685
	l62.741,62.741L6.592,173.371c-4.946,4.947-1.319,13.685,5.669,13.685h68.944v299.825c0,13.851,11.268,25.119,25.119,25.119h376.251
	c13.851,0,25.119-11.268,25.119-25.119v-34.205c0-4.427-3.588-8.017-8.017-8.017s-8.017,3.589-8.017,8.017v34.205
	c0,5.01-4.076,9.086-9.086,9.086H106.324c-5.01,0-9.086-4.076-9.086-9.086V187.056h51.841c4.428,0,8.017-3.589,8.017-8.017
	s-3.588-8.017-8.017-8.017H31.615l54.724-54.724c3.131-3.131,3.131-8.207,0-11.337L31.615,50.238h348.88v120.785H183.284
	c-4.428,0-8.017,3.589-8.017,8.017s3.588,8.017,8.017,8.017h205.228c4.428,0,8.017-3.589,8.017-8.017V42.221
	c0-4.427-3.588-8.017-8.017-8.017H97.238v-9.086c0-5.01,4.076-9.086,9.086-9.086H414.7v51.841c0,13.851,11.268,25.119,25.119,25.119
	h51.841v325.478C491.66,422.9,495.248,426.489,499.677,426.489z M439.819,76.96c-5.01,0-9.086-4.076-9.086-9.086V27.37l49.589,49.59
	H439.819z"/>
<path d="M191.835,92.994c4.428,0,8.017-3.589,8.017-8.017c0-4.427-3.588-8.017-8.017-8.017h-25.653
	c-4.428,0-8.017,3.589-8.017,8.017v51.307c0,4.427,3.588,8.017,8.017,8.017h25.653c4.428,0,8.017-3.589,8.017-8.017
	c0-4.427-3.588-8.017-8.017-8.017h-17.637V92.994H191.835z"/>
<path d="M217.489,128.267c-4.428,0-8.017,3.589-8.017,8.017c0,4.427,3.588,8.017,8.017,8.017h25.653
	c4.428,0,8.017-3.589,8.017-8.017V110.63c0-4.427-3.588-8.017-8.017-8.017h-17.637v-9.62h17.637c4.428,0,8.017-3.589,8.017-8.017
	c0-4.427-3.588-8.017-8.017-8.017h-25.653c-4.428,0-8.017,3.589-8.017,8.017v25.653c0,4.427,3.588,8.017,8.017,8.017h17.637v9.62
	H217.489z"/>
<path d="M285.898,144.301c3.451,0,6.515-2.208,7.605-5.481l17.102-51.307c1.381-4.144-0.926-8.759-5.07-10.141
	c-4.145-1.382-8.76,0.925-10.141,5.071l-9.497,28.49l-9.497-28.49c-1.401-4.201-5.939-6.472-10.141-5.071
	c-4.201,1.4-6.47,5.94-5.07,10.141l17.102,51.307C279.383,142.092,282.447,144.301,285.898,144.301z"/>
<path d="M158.165,452.676c0,9.136,7.432,16.568,16.568,16.568h239.432c9.136,0,16.568-7.432,16.568-16.568v-222.33
	c0-9.136-7.432-16.568-16.568-16.568H174.733c-9.136,0-16.568,7.432-16.568,16.568L158.165,452.676L158.165,452.676z
	 M174.199,230.347c0-0.295,0.241-0.534,0.534-0.534h239.432c0.294,0,0.534,0.239,0.534,0.534v222.33
	c0,0.295-0.241,0.534-0.534,0.534H174.733c-0.294,0-0.534-0.239-0.534-0.534L174.199,230.347L174.199,230.347z"/>
<path d="M208.938,272.568h34.205c4.428,0,8.017-3.589,8.017-8.017c0-4.427-3.588-8.017-8.017-8.017h-34.205
	c-4.428,0-8.017,3.589-8.017,8.017C200.921,268.979,204.509,272.568,208.938,272.568z"/>
<path d="M277.347,272.568h102.614c4.428,0,8.017-3.589,8.017-8.017c0-4.427-3.588-8.017-8.017-8.017H277.347
	c-4.428,0-8.017,3.589-8.017,8.017C269.33,268.979,272.918,272.568,277.347,272.568z"/>
<path d="M208.938,323.875h34.205c4.428,0,8.017-3.589,8.017-8.017c0-4.427-3.588-8.017-8.017-8.017h-34.205
	c-4.428,0-8.017,3.589-8.017,8.017C200.921,320.285,204.509,323.875,208.938,323.875z"/>
<path d="M277.347,323.875h102.614c4.428,0,8.017-3.589,8.017-8.017c0-4.427-3.588-8.017-8.017-8.017H277.347
	c-4.428,0-8.017,3.589-8.017,8.017C269.33,320.285,272.918,323.875,277.347,323.875z"/>
<path d="M208.938,375.182h34.205c4.428,0,8.017-3.589,8.017-8.017c0-4.427-3.588-8.017-8.017-8.017h-34.205
	c-4.428,0-8.017,3.589-8.017,8.017C200.921,371.592,204.509,375.182,208.938,375.182z"/>
<path d="M277.347,375.182H303c4.428,0,8.017-3.589,8.017-8.017c0-4.427-3.588-8.017-8.017-8.017h-25.653
	c-4.428,0-8.017,3.589-8.017,8.017C269.33,371.592,272.918,375.182,277.347,375.182z"/>
<path d="M208.938,426.489h34.205c4.428,0,8.017-3.589,8.017-8.017c0-4.427-3.588-8.017-8.017-8.017h-34.205
	c-4.428,0-8.017,3.589-8.017,8.017C200.921,422.899,204.509,426.489,208.938,426.489z"/>
<path d="M277.347,426.489H303c4.428,0,8.017-3.589,8.017-8.017c0-4.427-3.588-8.017-8.017-8.017h-25.653
	c-4.428,0-8.017,3.589-8.017,8.017C269.33,422.899,272.918,426.489,277.347,426.489z"/>
<path d="M385.093,361.006c-3.4-2.833-8.455-2.374-11.291,1.026l-15.219,18.263l-15.219-18.263c-2.835-3.402-7.89-3.861-11.291-1.026
	c-3.401,2.835-3.86,7.89-1.026,11.291l17.101,20.522l-17.101,20.522c-2.573,3.087-2.422,7.759,0.357,10.666
	c3.263,3.413,8.937,3.225,11.96-0.402l15.219-18.263l15.219,18.263c3.023,3.628,8.697,3.815,11.96,0.402
	c2.78-2.907,2.93-7.578,0.357-10.666l-17.101-20.522l17.101-20.522C388.953,368.895,388.494,363.841,385.093,361.006z"/>
</svg>