<?xml version="1.0" encoding="utf-8"?><!-- Uploaded to: SVG Repo, www.svgrepo.com, Generator: SVG Repo Mixer Tools -->
<svg width="800px" height="800px" viewBox="0 0 24 24" fill="none" xmlns="http://www.w3.org/2000/svg">
<path d="M18 9C18 10.1046 17.1046 11 16 11C14.8954 11 14 10.1046 14 9C14 7.89543 14.8954 7 16 7C17.1046 7 18 7.89543 18 9Z" fill="#152C70"/>
<path fill-rule="evenodd" clip-rule="evenodd" d="M2 8C2 5.23858 4.23858 3 7 3H17C19.7614 3 22 5.23858 22 8V16C22 18.7614 19.7614 21 17 21H7C4.23858 21 2 18.7614 2 16V8ZM7 5C5.34315 5 4 6.34315 4 8V13.2379L5.51703 11.4175C6.80081 9.87698 9.20548 10.0054 10.3178 11.674L11.7548 13.8294C12.0548 14.2794 12.6582 14.4094 13.1169 14.1227L13.9533 13.5999C15.2488 12.7903 16.9458 13.0834 17.8946 14.2807L19.8918 16.8012C19.9623 16.5461 20 16.2775 20 16V8C20 6.34315 18.6569 5 17 5H7Z" fill="#152C70"/>
</svg>