<?xml version="1.0" encoding="utf-8"?>

<!DOCTYPE svg PUBLIC "-//W3C//DTD SVG 1.0//EN" "http://www.w3.org/TR/2001/REC-SVG-20010904/DTD/svg10.dtd">
<!-- Uploaded to: SVG Repo, www.svgrepo.com, Generator: SVG Repo Mixer Tools -->
<svg version="1.0" id="Layer_1" xmlns="http://www.w3.org/2000/svg" xmlns:xlink="http://www.w3.org/1999/xlink" 
	 width="800px" height="800px" viewBox="0 0 64 64" enable-background="new 0 0 64 64" xml:space="preserve">
<g>
	<g>
		<path fill="#506C7F" d="M32,2c-0.553,0-1,0.447-1,1v1h2V3C33,2.447,32.553,2,32,2z"/>
		<path fill="#506C7F" d="M20.135,60.5c-0.277,0.479-0.113,1.09,0.365,1.365c0.479,0.277,1.09,0.113,1.366-0.365l6.64-11.5h-2.309
			L20.135,60.5z"/>
		<path fill="#506C7F" d="M43.865,60.5L37.803,50h-2.309l6.64,11.5c0.276,0.479,0.888,0.643,1.366,0.366S44.143,60.979,43.865,60.5z
			"/>
	</g>
	<path fill="#F9EBB2" d="M62,46c0,1.104-0.896,2-2,2H4c-1.104,0-2-0.896-2-2V8c0-1.104,0.896-2,2-2h56c1.104,0,2,0.896,2,2V46z"/>
	<g>
		<path fill="#394240" d="M60,4H35V3c0-1.657-1.343-3-3-3s-3,1.343-3,3v1H4C1.789,4,0,5.789,0,8v38c0,2.211,1.789,4,4,4h19.888
			l-5.485,9.5c-0.829,1.435-0.338,3.27,1.098,4.098s3.27,0.337,4.098-1.098L30.814,50h2.37l7.217,12.5
			c0.829,1.436,2.663,1.927,4.099,1.098c1.436-0.828,1.926-2.662,1.098-4.098L40.112,50H60c2.211,0,4-1.789,4-4V8
			C64,5.789,62.211,4,60,4z M31,3c0-0.553,0.447-1,1-1s1,0.447,1,1v1h-2V3z M21.866,61.5c-0.276,0.479-0.888,0.643-1.366,0.365
			c-0.479-0.275-0.643-0.887-0.365-1.365L26.197,50h2.309L21.866,61.5z M43.865,60.5c0.277,0.479,0.113,1.09-0.365,1.366
			s-1.09,0.112-1.366-0.366L35.494,50h2.309L43.865,60.5z M62,46c0,1.104-0.896,2-2,2H4c-1.104,0-2-0.896-2-2V8c0-1.104,0.896-2,2-2
			h56c1.104,0,2,0.896,2,2V46z"/>
		<path fill="#394240" d="M35,18h-6c-0.553,0-1,0.447-1,1v25h8V19C36,18.447,35.553,18,35,18z M34,42h-4v-8h4V42z M34,32h-4V20h4V32
			z"/>
		<path fill="#394240" d="M47,10h-6c-0.553,0-1,0.447-1,1v33h8V11C48,10.447,47.553,10,47,10z M46,42h-4V32h4V42z M46,30h-4V12h4V30
			z"/>
		<path fill="#394240" d="M23,26h-6c-0.553,0-1,0.447-1,1v17h8V27C24,26.447,23.553,26,23,26z M22,42h-4v-6h4V42z M22,34h-4v-6h4V34
			z"/>
	</g>
	<g>
		<rect x="18" y="28" fill="#F76D57" width="4" height="6"/>
		<rect x="42" y="32" fill="#45AAB8" width="4" height="10"/>
		<rect x="30" y="20" fill="#B4CCB9" width="4" height="12"/>
		<rect x="42" y="12" fill="#45AAB8" width="4" height="18"/>
		<rect x="18" y="36" fill="#F76D57" width="4" height="6"/>
		<rect x="30" y="34" fill="#B4CCB9" width="4" height="8"/>
	</g>
	<g opacity="0.2">
		<rect x="42" y="32" fill="#231F20" width="4" height="10"/>
		<rect x="18" y="36" fill="#231F20" width="4" height="6"/>
		<rect x="30" y="34" fill="#231F20" width="4" height="8"/>
	</g>
</g>
</svg>