<?xml version="1.0" encoding="utf-8"?>
<!-- Uploaded to: SVG Repo, www.svgrepo.com, Generator: SVG Repo Mixer Tools -->
<svg width="800px" height="800px" viewBox="0 0 1024 1024" class="icon"  version="1.1" xmlns="http://www.w3.org/2000/svg"><path d="M759.3 352h84.3c15.5 0 28.1 9.2 28.1 20.5v277.3c0 11.3-12.6 20.5-28.1 20.5h-70.3" fill="#8CAAFF" /><path d="M843.5 695h-70.2v-49.5h70.2c1.4 0 2.5-0.2 3.3-0.4v-268c-0.9-0.2-2-0.4-3.3-0.4h-84.2v-49.5h84.3c29.6 0 52.8 19.9 52.8 45.3v277.3c0 25.4-23.3 45.2-52.9 45.2z" fill="#333333" /><path d="M203.5 258h531c13.7 0 24.7 11.1 24.7 24.7v457.8c0 13.7-11.1 24.7-24.7 24.7h-531c-13.7 0-24.7-11.1-24.7-24.7V282.7c-0.1-13.6 11-24.7 24.7-24.7z" fill="#FFFFFF" /><path d="M734.5 790h-531c-27.3 0-49.5-22.2-49.5-49.5V282.7c0-27.3 22.2-49.5 49.5-49.5h531c27.3 0 49.5 22.2 49.5 49.5v457.8c0 27.3-22.2 49.5-49.5 49.5z m-531-507.3v457.8h531V282.7h-531z" fill="#333333" /><path d="M595.8 521.2L407 656c-5.6 4-13.3 2.7-17.3-2.9-1.5-2.1-2.3-4.6-2.3-7.2V376.3c0-6.8 5.5-12.4 12.4-12.4 2.6 0 5.1 0.8 7.2 2.3L595.8 501c5.6 4 6.9 11.7 2.9 17.3-0.8 1.1-1.8 2.1-2.9 2.9z" fill="#8CAAFF" /><path d="M399.9 683c-2.1 0-4.1-0.2-6.2-0.5-9.8-1.6-18.4-7-24.1-15.1-4.5-6.3-6.9-13.8-6.9-21.6V376.3c0-20.5 16.6-37.1 37.1-37.1 7.8 0 15.2 2.4 21.6 6.9l188.8 134.8c8.1 5.8 13.4 14.3 15 24.1 1.6 9.8-0.6 19.6-6.4 27.7-2.4 3.4-5.3 6.3-8.7 8.7L421.3 676.2c-6.3 4.5-13.8 6.8-21.4 6.8z m12.2-282.6v221.5l155.1-110.7-155.1-110.8zM581.4 501s0 0.1 0 0z" fill="#333333" /></svg>